<svg width="1920" height="1080" viewBox="0 0 1920 1080" fill="none" xmlns="http://www.w3.org/2000/svg">
<g clip-path="url(#clip0_45:6)">
<rect width="1920" height="1087" transform="translate(0 -3)" fill="white"/>
<path d="M0 443.878L174 172.128L350 260.698L524 248.62L698 335.178H872L1048 389.528L1222 172.128L1396 335.178L1570 315.048L1746 292.906L1920 315.048V-3H1746H1570H1396H1222H1048H872H698H524H350H174H0V443.878Z" fill="#259073"/>
<path d="M0 564.656L174 302.97L350 389.528L524 347.256L698 488.163L872 478.098L1048 564.656L1222 335.178L1396 520.37L1570 488.163L1746 443.878L1920 423.748V311.022L1746 288.88L1570 311.022L1396 331.152L1222 168.102L1048 385.502L872 331.152H698L524 244.594L350 256.672L174 168.102L0 439.852V564.656Z" fill="#006F71"/>
<path d="M0 683.42L174 389.528L350 498.228L524 423.748L698 661.278L872 586.798L1048 737.77L1222 433.813L1396 683.42L1570 586.798H1746H1920V419.722L1746 439.852L1570 484.137L1396 516.344L1222 331.152L1048 560.63L872 474.072L698 484.137L524 343.23L350 385.502L174 298.944L0 560.63V683.42Z" fill="#004E5E"/>
<path d="M0 804.198L174 695.498H350L524 596.863L698 858.548L872 695.498L1048 922.963L1222 596.863L1396 933.028L1570 868.613L1746 737.77L1920 878.678V582.772H1746H1570L1396 679.394L1222 429.787L1048 733.744L872 582.772L698 657.252L524 419.722L350 494.202L174 385.502L0 679.394V804.198Z" fill="#052E42"/>
<path d="M0 1086.01H174H350H524H698H872H1048H1222H1396H1570H1746H1920V874.652L1746 733.744L1570 864.587L1396 929.002L1222 592.837L1048 918.937L872 691.472L698 854.522L524 592.837L350 691.472H174L0 800.172V1086.01Z" fill="#041122"/>
</g>
<defs>
<clipPath id="clip0_45:6">
<rect width="1920" height="1087" fill="white" transform="translate(0 -3)"/>
</clipPath>
</defs>
</svg>
