<svg width="555" height="135" viewBox="0 0 555 135" fill="none" xmlns="http://www.w3.org/2000/svg">
<g filter="url(#filter0_d_45:16)">
<path d="M53.1841 16.7153H18.2313V56.416L41.4981 77.5334V38.9941H54.0263C61.9223 38.9941 65.8176 42.9009 65.8176 49.0249V78.4837C65.8176 84.6077 62.1328 88.7256 54.0263 88.7256H18.2313V111.11H53.1841C71.9238 111.216 89.5054 101.818 89.5054 80.0675V48.2858C89.5054 26.3237 71.9238 16.7153 53.1841 16.7153ZM236.37 80.1731V47.6523C236.37 35.9321 257.215 33.1869 263.532 45.0126L282.798 37.0936C275.323 20.3052 261.427 15.3427 249.951 15.3427C231.211 15.3427 212.682 26.3237 212.682 47.6523V80.1731C212.682 101.607 231.211 112.483 249.53 112.483C261.321 112.483 275.429 106.57 283.219 91.2597L262.585 81.6513C257.531 94.7441 236.37 91.5765 236.37 80.1731ZM172.571 52.0869C165.307 50.5031 160.464 47.8634 160.148 43.3232C160.569 32.3422 177.308 32.0254 187.099 42.4785L202.575 30.4416C192.89 18.5103 181.941 15.3427 170.571 15.3427C153.41 15.3427 136.776 25.0567 136.776 43.64C136.776 61.6953 150.462 71.3038 165.517 73.6267C173.203 74.6825 181.73 77.7446 181.52 83.1295C180.888 93.2658 160.253 92.7379 150.883 81.2289L136.039 95.3776C144.777 106.675 156.674 112.483 167.833 112.483C184.994 112.483 204.049 102.452 204.786 84.1854C205.839 60.9562 189.205 55.1489 172.571 52.0869ZM102.139 111.11H125.722V16.7153H102.139V111.11ZM500.095 16.7153H465.142V56.416L488.409 77.5334V38.9941H500.832C508.728 38.9941 512.623 42.9009 512.623 49.0249V78.4837C512.623 84.6077 508.938 88.7256 500.832 88.7256H465.037V111.11H499.99C518.729 111.216 536.311 101.818 536.311 80.0675V48.2858C536.416 26.3237 518.835 16.7153 500.095 16.7153ZM328.49 15.3427C309.118 15.3427 289.852 26.0069 289.852 47.7579V80.0675C289.852 101.713 309.223 112.483 328.7 112.483C348.072 112.483 367.338 101.713 367.338 80.0675V47.7579C367.338 26.1125 347.861 15.3427 328.49 15.3427V15.3427ZM343.65 80.0675C343.65 86.825 336.07 90.3094 328.595 90.3094C321.015 90.3094 313.435 86.9306 313.435 80.0675V47.7579C313.435 40.7891 320.804 37.0936 328.174 37.0936C335.859 37.0936 343.65 40.4724 343.65 47.7579V80.0675ZM452.088 47.7579C451.561 25.5846 436.611 16.7153 417.345 16.7153H379.971V111.216H403.87V81.1233H408.081L429.768 111.11H459.247L433.769 78.6948C445.139 75.1049 452.088 65.2853 452.088 47.7579ZM417.766 60.5339H403.87V38.9941H417.766C432.716 38.9941 432.716 60.5339 417.766 60.5339Z" fill="#4DC4A3"/>
</g>
<defs>
<filter id="filter0_d_45:16" x="0.242428" y="0.951535" width="554.058" height="133.118" filterUnits="userSpaceOnUse" color-interpolation-filters="sRGB">
<feFlood flood-opacity="0" result="BackgroundImageFix"/>
<feColorMatrix in="SourceAlpha" type="matrix" values="0 0 0 0 0 0 0 0 0 0 0 0 0 0 0 0 0 0 127 0" result="hardAlpha"/>
<feOffset dy="3.59778"/>
<feGaussianBlur stdDeviation="8.99445"/>
<feComposite in2="hardAlpha" operator="out"/>
<feColorMatrix type="matrix" values="0 0 0 0 0 0 0 0 0 0 0 0 0 0 0 0 0 0 0.25 0"/>
<feBlend mode="normal" in2="BackgroundImageFix" result="effect1_dropShadow_45:16"/>
<feBlend mode="normal" in="SourceGraphic" in2="effect1_dropShadow_45:16" result="shape"/>
</filter>
</defs>
</svg>
